<?xml version="1.0" encoding="UTF-8" standalone="no"?>
<!DOCTYPE svg PUBLIC "-//W3C//DTD SVG 20010904//EN"
              "http://www.w3.org/TR/2001/REC-SVG-20010904/DTD/svg10.dtd">

<svg xmlns="http://www.w3.org/2000/svg"
     width="270.635mm" height="58.2011mm"
     viewBox="0 0 1023 220">
  <path id="Selección"
        fill="none" stroke="black" stroke-width="1"
        d="M 110.00,4.46
           C 96.50,6.16 92.30,5.11 78.00,9.74
             50.44,18.67 27.32,39.78 15.31,66.00
             -9.87,120.98 16.32,187.23 73.00,209.19
             81.92,212.65 94.44,215.88 104.00,216.00
             117.46,216.15 124.64,216.51 138.00,213.35
             165.20,206.91 189.28,188.99 203.55,165.00
             211.23,152.10 217.82,133.10 218.00,118.00
             218.18,102.20 218.20,92.42 213.25,77.00
             202.72,44.17 175.02,17.94 142.00,8.58
             133.08,6.05 119.20,3.99 110.00,4.46 Z
           M 101.00,9.29
           C 115.31,7.95 131.38,9.40 145.00,14.08
             198.63,32.47 226.48,89.56 208.67,143.00
             204.60,155.20 198.48,166.12 190.25,176.00
             180.22,188.03 169.00,195.98 155.00,202.74
             139.41,210.27 124.06,212.20 107.00,212.00
             96.33,211.87 83.90,208.72 74.00,204.80
             23.40,184.75 -2.16,128.18 15.69,77.00
             29.41,37.68 60.82,15.42 101.00,9.29 Z
           M 27.00,63.00
           C 27.00,63.00 48.00,53.69 48.00,53.69
             61.67,48.83 76.54,46.60 91.00,46.04
             96.03,45.84 97.63,46.61 102.00,46.74
             120.50,48.18 150.57,51.80 168.00,46.74
             172.07,45.34 174.32,43.93 178.00,42.00
             172.97,31.39 153.01,21.87 142.00,18.34
             109.23,7.84 72.91,15.33 47.00,37.87
             39.29,44.58 31.50,53.78 27.00,63.00 Z
           M 238.00,148.00
           C 238.00,148.00 238.00,190.00 238.00,190.00
             238.00,190.00 348.00,190.00 348.00,190.00
             352.88,189.99 359.29,189.47 364.00,188.24
             390.13,181.42 387.25,154.33 387.00,133.00
             386.90,125.00 385.25,115.17 379.79,109.04
             371.80,100.08 359.14,99.11 348.00,97.25
             348.00,97.25 307.00,90.08 307.00,90.08
             307.00,90.08 283.00,85.66 283.00,85.66
             277.02,83.58 274.29,74.11 279.43,69.74
             281.84,67.69 286.01,68.00 289.00,68.00
             289.00,68.00 342.00,68.00 342.00,68.00
             351.82,68.19 350.00,72.19 350.00,88.00
             356.39,86.50 368.40,80.33 375.00,77.31
             377.43,76.20 382.53,74.47 384.01,72.36
             385.17,70.71 384.99,67.95 385.00,66.00
             385.00,66.00 385.00,44.00 385.00,44.00
             385.00,41.06 385.32,36.84 383.26,34.51
             379.83,30.62 363.41,32.00 358.00,32.00
             358.00,32.00 274.00,32.00 274.00,32.00
             269.47,32.01 260.24,32.78 256.00,33.93
             234.47,39.77 236.97,64.71 237.00,82.00
             237.01,90.46 238.28,100.39 244.33,106.82
             250.72,113.61 260.25,115.29 269.00,116.75
             269.00,116.75 311.00,123.41 311.00,123.41
             311.00,123.41 334.00,127.08 334.00,127.08
             336.95,127.58 341.24,128.03 343.26,130.43
             345.07,132.57 345.11,136.32 344.96,139.00
             344.75,142.69 343.71,145.93 339.96,147.40
             337.80,148.25 331.60,148.00 329.00,148.00
             329.00,148.00 308.00,148.00 308.00,148.00
             308.00,148.00 280.00,148.00 280.00,148.00
             280.00,148.00 238.00,148.00 238.00,148.00 Z
           M 397.00,85.00
           C 397.00,85.00 411.00,85.00 411.00,85.00
             411.00,85.00 411.00,46.00 411.00,46.00
             416.95,50.77 423.41,64.82 427.22,72.00
             432.16,81.31 432.00,84.98 443.00,85.00
             443.00,85.00 454.00,85.00 454.00,85.00
             461.49,84.86 460.99,82.74 461.00,76.00
             461.00,76.00 461.00,33.00 461.00,33.00
             461.00,33.00 447.00,33.00 447.00,33.00
             447.00,33.00 446.00,73.00 446.00,73.00
             440.02,64.66 435.83,54.97 430.86,46.00
             424.30,34.16 426.17,33.02 416.00,33.00
             416.00,33.00 404.00,33.00 404.00,33.00
             396.51,33.14 397.01,35.26 397.00,42.00
             397.00,42.00 397.00,85.00 397.00,85.00 Z
           M 784.00,46.00
           C 784.00,46.00 784.00,61.00 784.00,61.00
             784.00,61.00 824.00,61.00 824.00,61.00
             824.00,61.00 852.00,58.83 852.00,58.83
             852.00,58.83 924.00,49.91 924.00,49.91
             924.00,49.91 934.00,48.96 934.00,48.96
             934.00,48.96 946.00,48.96 946.00,48.96
             946.00,48.96 953.00,48.18 953.00,48.18
             953.00,48.18 965.00,49.00 965.00,49.00
             965.00,49.00 994.00,50.93 994.00,50.93
             997.63,51.55 1010.78,54.75 1012.34,50.93
             1014.59,44.86 1004.35,44.31 1001.00,43.75
             988.24,41.63 969.73,39.02 957.00,39.00
             957.00,39.00 898.00,41.17 898.00,41.17
             898.00,41.17 846.00,46.96 846.00,46.96
             846.00,46.96 837.00,46.96 837.00,46.96
             837.00,46.96 825.00,48.00 825.00,48.00
             825.00,48.00 808.00,48.00 808.00,48.00
             808.00,48.00 784.00,46.00 784.00,46.00 Z
           M 735.00,42.00
           C 735.00,42.00 735.00,96.00 735.00,96.00
             735.00,96.00 696.00,96.00 696.00,96.00
             684.71,96.00 676.15,95.19 666.00,101.47
             648.67,112.18 651.97,136.42 652.00,154.00
             652.01,159.95 652.43,164.29 654.36,170.00
             656.33,175.82 659.98,180.77 665.00,184.36
             672.29,189.58 685.16,190.89 694.00,191.00
             694.00,191.00 767.00,191.00 767.00,191.00
             767.00,191.00 767.00,42.00 767.00,42.00
             767.00,42.00 735.00,42.00 735.00,42.00 Z
           M 20.00,142.00
           C 22.65,137.54 23.67,130.23 25.34,125.00
             28.22,116.03 32.85,105.82 38.09,98.00
             41.45,92.99 46.42,87.21 51.00,83.30
             70.02,67.05 98.24,65.96 122.00,66.00
             122.00,66.00 137.00,67.00 137.00,67.00
             151.30,67.16 162.40,67.10 176.00,61.55
             179.42,60.15 187.71,56.19 187.82,51.99
             187.87,49.83 185.24,46.73 184.00,45.00
             184.00,45.00 167.00,53.46 167.00,53.46
             153.05,58.54 141.42,58.07 127.00,58.00
             127.00,58.00 98.00,55.00 98.00,55.00
             91.03,54.97 83.87,55.40 77.00,56.61
             55.29,60.46 37.91,70.16 24.63,88.00
             18.64,96.04 15.12,99.56 15.00,110.00
             14.89,120.15 16.85,132.36 20.00,142.00 Z
           M 466.00,46.00
           C 466.00,55.16 463.84,75.44 471.11,81.58
             475.26,85.10 479.91,84.99 485.00,85.00
             494.84,85.02 511.61,87.87 515.35,76.00
             516.04,73.80 515.99,71.29 516.00,69.00
             516.00,69.00 516.00,46.00 516.00,46.00
             516.00,46.00 503.00,46.00 503.00,46.00
             503.00,51.18 504.07,66.06 501.26,69.77
             498.26,73.74 486.15,74.43 482.43,71.26
             479.98,69.17 480.04,65.94 480.00,63.00
             480.00,63.00 480.00,46.00 480.00,46.00
             480.00,46.00 466.00,46.00 466.00,46.00 Z
           M 568.00,85.00
           C 568.00,85.00 568.00,74.00 568.00,74.00
             568.00,74.00 547.00,74.00 547.00,74.00
             547.00,74.00 539.43,74.43 537.30,72.13
             535.91,70.17 535.00,65.00 535.00,65.00
             536.30,66.89 536.73,68.01 539.13,68.84
             540.32,69.02 543.01,69.17 545.31,69.12
             551.40,69.04 563.43,70.48 566.86,65.61
             569.93,61.26 569.82,50.06 564.78,47.02
             562.74,45.80 559.34,46.00 557.00,46.00
             550.52,45.99 533.10,44.96 528.09,47.69
             518.58,52.87 518.50,76.28 527.04,82.30
             530.76,84.92 534.67,84.98 539.00,85.00
             539.00,85.00 568.00,85.00 568.00,85.00 Z
           M 569.00,46.00
           C 569.00,46.00 580.00,71.00 580.00,71.00
             580.00,71.00 586.49,83.40 586.49,83.40
             586.49,83.40 595.00,85.00 595.00,85.00
             595.00,85.00 604.61,83.98 604.61,83.98
             604.61,83.98 610.23,74.00 610.23,74.00
             610.23,74.00 622.00,46.00 622.00,46.00
             622.00,46.00 608.41,47.02 608.41,47.02
             608.41,47.02 604.00,55.00 604.00,55.00
             604.00,55.00 597.00,74.00 597.00,74.00
             593.19,70.01 589.97,60.39 587.80,55.00
             586.90,52.75 585.49,48.39 583.50,47.02
             581.24,45.46 572.11,46.00 569.00,46.00 Z
           M 625.00,46.00
           C 625.00,46.00 625.00,56.00 625.00,56.00
             625.00,56.00 646.00,56.00 646.00,56.00
             646.00,56.00 654.40,57.60 654.40,57.60
             654.40,57.60 656.00,64.00 656.00,64.00
             652.57,59.35 651.58,60.01 646.00,60.00
             636.02,59.98 625.30,57.83 624.19,71.00
             623.82,75.35 624.99,81.51 629.11,83.83
             631.40,85.11 634.44,84.99 637.00,85.00
             637.00,85.00 660.00,85.00 660.00,85.00
             662.54,84.99 666.48,85.32 668.40,83.40
             670.64,81.17 670.00,74.13 670.00,71.00
             670.00,64.89 671.70,50.37 665.87,47.02
             663.91,45.90 661.20,46.02 659.00,46.00
             659.00,46.00 625.00,46.00 625.00,46.00 Z
           M 708.00,70.00
           C 708.00,70.00 708.00,73.00 708.00,73.00
             708.00,73.00 681.00,73.00 681.00,73.00
             681.00,73.00 675.02,74.60 675.02,74.60
             675.02,74.60 674.00,85.00 674.00,85.00
             674.00,85.00 702.00,85.00 702.00,85.00
             705.29,85.00 713.27,85.34 715.98,84.26
             723.74,81.18 724.22,67.06 716.96,63.17
             716.96,63.17 687.00,59.00 687.00,59.00
             687.00,59.00 687.00,57.00 687.00,57.00
             687.00,57.00 709.00,56.00 709.00,56.00
             709.00,56.00 709.00,61.00 709.00,61.00
             711.81,60.36 718.31,58.87 719.98,56.49
             720.85,55.25 720.96,53.47 720.96,52.00
             720.96,46.45 718.92,46.10 714.00,46.00
             714.00,46.00 687.00,46.00 687.00,46.00
             683.81,46.01 679.91,45.71 677.23,47.74
             672.19,51.54 673.00,62.73 678.11,66.15
             681.15,68.18 684.56,67.82 688.00,68.17
             688.00,68.17 708.00,70.00 708.00,70.00 Z
           M 556.00,56.14
           C 556.00,56.14 556.04,60.00 556.04,60.00
             556.04,60.00 535.00,60.00 535.00,60.00
             535.66,58.32 535.75,57.38 537.42,56.14
             540.97,53.98 551.93,55.01 556.00,56.14 Z
           M 100.00,207.00
           C 100.00,204.35 100.45,197.56 98.98,195.56
             97.64,193.73 91.43,192.17 89.00,191.13
             83.54,188.79 78.50,185.57 74.00,181.70
             61.56,171.01 55.15,156.28 55.00,140.00
             55.00,140.00 74.00,140.00 74.00,140.00
             74.79,149.64 78.22,158.87 85.17,165.83
             98.23,178.88 121.83,179.80 135.91,167.98
             140.06,164.50 143.83,159.94 146.10,155.00
             147.77,151.37 149.03,142.54 151.31,141.02
             153.16,139.79 156.81,140.00 159.00,140.00
             159.00,140.00 169.00,140.00 169.00,140.00
             168.98,167.28 149.17,190.80 122.00,195.00
             122.00,195.00 122.00,207.00 122.00,207.00
             130.77,206.28 139.79,203.68 148.00,200.58
             206.26,178.58 224.88,106.51 192.00,56.00
             192.00,56.00 177.00,66.11 177.00,66.11
             169.55,70.05 159.37,72.03 151.00,72.83
             143.82,73.52 140.61,72.08 134.00,72.00
             134.00,72.00 115.00,72.91 115.00,72.91
             98.02,74.08 80.36,75.78 66.00,85.91
             40.62,103.81 32.96,130.40 39.21,160.00
             40.53,166.23 43.36,178.21 47.27,182.99
             58.01,196.08 83.51,204.77 100.00,207.00 Z
           M 784.00,73.00
           C 784.00,73.00 784.00,88.00 784.00,88.00
             802.38,88.00 819.75,88.63 838.00,85.57
             873.78,79.56 908.71,68.56 945.00,65.91
             945.00,65.91 957.00,65.00 957.00,65.00
             957.00,65.00 983.00,65.00 983.00,65.00
             983.00,65.00 1013.00,67.00 1013.00,67.00
             1012.91,64.43 1013.10,61.66 1010.69,60.02
             1008.49,58.52 1000.86,58.14 998.00,57.92
             998.00,57.92 974.00,56.00 974.00,56.00
             952.61,55.75 934.24,56.48 913.00,59.28
             913.00,59.28 843.00,70.72 843.00,70.72
             823.38,73.05 803.75,73.00 784.00,73.00 Z
           M 656.00,69.00
           C 655.88,70.47 655.96,72.17 654.98,73.40
             653.63,75.10 650.95,74.96 649.00,75.00
             642.80,75.11 638.58,76.22 638.00,69.00
             638.00,69.00 656.00,69.00 656.00,69.00 Z
           M 510.00,192.00
           C 510.00,192.00 510.00,166.00 510.00,166.00
             510.00,166.00 455.00,166.00 455.00,166.00
             448.93,166.00 437.78,167.34 433.42,162.72
             428.71,157.75 430.00,145.65 430.00,139.00
             430.00,139.00 435.00,153.00 435.00,153.00
             435.00,153.00 489.00,153.00 489.00,153.00
             494.84,152.99 500.29,152.98 504.90,148.78
             512.85,141.51 512.55,124.90 511.13,115.00
             510.42,110.09 509.66,105.83 505.87,102.22
             501.30,97.87 492.11,97.08 486.00,97.00
             486.00,97.00 444.00,97.00 444.00,97.00
             444.00,97.00 433.00,97.83 433.00,97.83
             422.83,98.82 414.89,99.29 407.09,107.09
             396.34,117.84 398.00,133.11 398.00,147.00
             398.00,154.12 397.54,161.03 399.24,168.00
             400.62,173.65 403.63,179.81 408.04,183.67
             418.61,192.91 431.07,192.00 444.00,192.00
             444.00,192.00 510.00,192.00 510.00,192.00 Z
           M 524.00,97.00
           C 524.00,97.00 524.00,192.00 524.00,192.00
             524.00,192.00 556.00,192.00 556.00,192.00
             556.00,192.00 556.00,111.00 556.00,111.00
             557.16,113.50 559.63,120.66 561.51,121.98
             563.29,123.23 566.85,123.00 569.00,123.00
             569.00,123.00 592.00,123.00 592.00,123.00
             597.96,123.08 603.55,123.99 606.35,130.02
             608.64,134.94 608.00,145.32 608.00,151.00
             608.00,151.00 608.00,192.00 608.00,192.00
             608.00,192.00 640.00,192.00 640.00,192.00
             640.00,192.00 640.00,135.00 640.00,135.00
             639.89,126.23 638.03,116.03 632.47,109.02
             625.16,99.78 615.71,98.87 605.00,97.83
             605.00,97.83 594.00,97.00 594.00,97.00
             594.00,97.00 524.00,97.00 524.00,97.00 Z
           M 902.00,164.94
           C 902.00,164.94 902.00,192.00 902.00,192.00
             902.00,192.00 990.00,192.00 990.00,192.00
             996.95,191.99 1004.30,191.49 1009.67,186.47
             1015.30,181.23 1015.99,174.19 1016.00,167.00
             1016.01,158.53 1017.04,148.54 1009.90,142.39
             1003.90,137.23 995.37,137.60 988.00,136.72
             988.00,136.72 938.00,131.78 938.00,131.78
             931.49,130.54 931.42,125.11 934.43,123.02
             936.22,121.78 939.86,122.00 942.00,122.00
             942.00,122.00 986.00,122.00 986.00,122.00
             986.00,122.00 986.00,134.00 986.00,134.00
             991.92,132.93 1001.10,129.16 1007.00,126.95
             1009.31,126.08 1013.29,124.93 1014.43,122.59
             1015.34,120.70 1015.00,110.71 1015.00,108.00
             1015.00,105.60 1015.24,101.48 1013.83,99.48
             1011.26,95.87 998.37,97.00 994.00,97.00
             994.00,97.00 933.00,97.00 933.00,97.00
             920.11,97.02 905.03,97.83 901.53,113.00
             900.77,116.26 900.98,123.36 901.00,127.00
             901.02,130.31 901.03,132.74 901.93,136.00
             906.17,151.38 921.43,149.97 934.00,151.17
             934.00,151.17 963.00,153.91 963.00,153.91
             966.86,154.18 978.95,154.43 981.55,156.74
             984.59,159.42 983.31,163.78 977.98,164.94
             977.98,164.94 954.00,164.94 954.00,164.94
             954.00,164.94 933.00,164.94 933.00,164.94
             933.00,164.94 902.00,164.94 902.00,164.94 Z
           M 783.00,98.00
           C 783.00,98.00 783.00,122.00 783.00,122.00
             783.00,122.00 846.00,122.00 846.00,122.00
             855.33,122.05 856.95,123.67 857.00,133.00
             857.00,133.00 857.00,146.00 857.00,146.00
             851.60,134.39 853.57,133.02 843.00,133.00
             843.00,133.00 806.00,133.00 806.00,133.00
             790.76,133.02 781.20,138.47 781.00,155.00
             780.89,164.51 779.60,179.19 786.53,186.53
             793.28,193.68 804.97,192.00 814.00,192.00
             814.00,192.00 880.00,192.00 880.00,192.00
             881.99,192.00 885.81,192.23 887.40,190.98
             889.92,188.99 889.00,176.48 889.00,173.00
             889.00,173.00 889.00,117.00 889.00,117.00
             888.98,102.79 884.02,98.02 870.00,98.00
             870.00,98.00 783.00,98.00 783.00,98.00 Z
           M 108.00,115.30
           C 118.00,114.39 127.68,118.99 132.59,128.00
             138.89,139.59 133.17,155.44 121.00,160.39
             117.61,161.77 113.64,162.12 110.00,161.96
             93.91,161.25 83.11,143.82 89.53,129.00
             93.08,120.81 99.58,116.94 108.00,115.30 Z
           M 430.00,133.00
           C 430.91,122.32 434.78,120.05 445.00,120.00
             445.00,120.00 464.00,120.00 464.00,120.00
             467.37,120.00 477.05,119.42 479.52,121.17
             482.15,123.05 484.89,132.78 473.00,133.00
             473.00,133.00 451.00,133.00 451.00,133.00
             451.00,133.00 430.00,133.00 430.00,133.00 Z
           M 735.00,121.00
           C 735.00,121.00 735.00,185.00 735.00,185.00
             731.32,179.86 728.47,166.57 725.30,163.60
             723.36,161.78 720.47,162.02 718.00,162.00
             718.00,162.00 699.00,162.00 699.00,162.00
             694.65,161.99 689.68,162.31 686.51,158.72
             683.72,155.56 684.01,150.94 684.00,147.00
             683.99,140.79 682.75,129.03 687.42,124.57
             690.66,121.47 696.72,121.05 701.00,121.00
             701.00,121.00 735.00,121.00 735.00,121.00 Z
           M 857.00,153.00
           C 857.00,153.00 857.00,168.00 857.00,168.00
             857.00,168.00 823.00,168.00 823.00,168.00
             817.72,167.99 812.78,168.69 812.11,161.98
             811.43,155.21 813.53,153.12 820.00,153.00
             820.00,153.00 857.00,153.00 857.00,153.00 Z" />
</svg>
